<svg width="20" height="20" viewBox="0 0 20 20" fill="none" xmlns="http://www.w3.org/2000/svg">
<path d="M9.99996 1.66669C5.40496 1.66669 1.66663 5.40502 1.66663 10C1.66663 14.595 5.40496 18.3334 9.99996 18.3334C14.595 18.3334 18.3333 14.595 18.3333 10C18.3333 5.40502 14.595 1.66669 9.99996 1.66669ZM9.99996 16.6667C6.32413 16.6667 3.33329 13.6759 3.33329 10C3.33329 6.32419 6.32413 3.33335 9.99996 3.33335C13.6758 3.33335 16.6666 6.32419 16.6666 10C16.6666 13.6759 13.6758 16.6667 9.99996 16.6667Z" fill="#A4B0CB"/>
<path d="M10.8333 5.83331H9.16663V10.345L11.9108 13.0891L13.0891 11.9108L10.8333 9.65498V5.83331Z" fill="#A4B0CB"/>
</svg>
