<svg width="129" height="125" viewBox="0 0 129 125" fill="none" xmlns="http://www.w3.org/2000/svg">
<path d="M81.296 28.1108H46.7896C46.0033 28.1118 45.2494 28.4246 44.6934 28.9806C44.1374 29.5366 43.8246 30.2905 43.8236 31.0768V107.768L43.4282 107.888L34.9632 110.48C34.562 110.603 34.1287 110.561 33.7584 110.364C33.388 110.167 33.1109 109.831 32.9879 109.431L7.80853 27.1835C7.68599 26.7823 7.72776 26.3489 7.92464 25.9785C8.12152 25.6081 8.45742 25.331 8.8585 25.2081L21.903 21.2139L59.7194 9.63862L72.7638 5.64441C72.9623 5.58332 73.1709 5.56197 73.3777 5.58159C73.5845 5.60121 73.7854 5.66141 73.9688 5.75875C74.1523 5.85609 74.3148 5.98866 74.447 6.14886C74.5792 6.30907 74.6785 6.49377 74.7392 6.6924L81.1754 27.7154L81.296 28.1108Z" fill="#F3F5FA"/>
<path d="M88.8257 27.7154L81.0686 2.37788C80.9396 1.95571 80.7286 1.5631 80.4477 1.2225C80.1669 0.881903 79.8217 0.599983 79.4318 0.392849C79.042 0.185715 78.6152 0.057427 78.1757 0.01532C77.7363 -0.026787 77.2928 0.0181123 76.8708 0.147448L58.531 5.76109L20.7166 17.3384L2.37688 22.954C1.52491 23.2156 0.811545 23.8045 0.393367 24.5916C-0.0248108 25.3786 -0.113638 26.2994 0.146388 27.1518L26.6584 113.745C26.8697 114.433 27.2959 115.035 27.8745 115.464C28.4532 115.892 29.1538 116.123 29.8736 116.124C30.2068 116.124 30.538 116.074 30.8563 115.975L43.4282 112.128L43.8237 112.005V111.592L43.4282 111.712L30.7397 115.598C29.9877 115.827 29.1754 115.749 28.4811 115.38C27.7868 115.011 27.2672 114.382 27.0361 113.63L0.526116 27.0352C0.411646 26.6628 0.371751 26.2716 0.408712 25.8838C0.445673 25.496 0.558763 25.1193 0.741512 24.7753C0.92426 24.4313 1.17308 24.1267 1.47371 23.879C1.77434 23.6312 2.12089 23.4452 2.4935 23.3316L20.8332 17.716L58.6477 6.14074L76.9875 0.525122C77.2701 0.43887 77.5639 0.394892 77.8594 0.394617C78.4936 0.396041 79.1106 0.600488 79.6202 0.978013C80.1297 1.35554 80.505 1.8863 80.691 2.49256L88.4124 27.7154L88.5351 28.1109H88.9464L88.8257 27.7154Z" fill="#1A1B1D"/>
<path d="M24.2569 25.2728C23.8758 25.2725 23.5048 25.1501 23.1984 24.9236C22.892 24.697 22.6662 24.3782 22.5542 24.0139L20.0073 15.6949C19.9389 15.4715 19.9151 15.2367 19.9374 15.0041C19.9597 14.7714 20.0276 14.5454 20.1373 14.3391C20.2469 14.1327 20.3962 13.9499 20.5765 13.8012C20.7567 13.6525 20.9646 13.5407 21.188 13.4723L55.977 2.8217C56.4283 2.68399 56.9158 2.73096 57.3325 2.9523C57.7492 3.17364 58.0611 3.55127 58.1996 4.00231L60.7465 12.3214C60.8841 12.7727 60.8371 13.2601 60.6158 13.6768C60.3945 14.0935 60.0169 14.4054 59.5659 14.544L24.7769 25.1947C24.6084 25.2464 24.4332 25.2727 24.2569 25.2728Z" fill="#79A8ED"/>
<path d="M37.5985 8.88741C39.7826 8.88741 41.5531 7.11685 41.5531 4.93275C41.5531 2.74865 39.7826 0.978088 37.5985 0.978088C35.4144 0.978088 33.6438 2.74865 33.6438 4.93275C33.6438 7.11685 35.4144 8.88741 37.5985 8.88741Z" fill="#79A8ED"/>
<path d="M37.5984 7.43695C38.9815 7.43695 40.1027 6.31578 40.1027 4.93274C40.1027 3.5497 38.9815 2.42853 37.5984 2.42853C36.2154 2.42853 35.0942 3.5497 35.0942 4.93274C35.0942 6.31578 36.2154 7.43695 37.5984 7.43695Z" fill="white"/>
<path d="M119.16 115.113H52.3262C51.8806 115.113 51.4534 114.936 51.1383 114.62C50.8233 114.305 50.646 113.878 50.6455 113.433V33.3507C50.646 32.9051 50.8232 32.4779 51.1383 32.1628C51.4534 31.8477 51.8806 31.6705 52.3262 31.67H119.16C119.606 31.6705 120.033 31.8477 120.348 32.1628C120.663 32.4779 120.84 32.9051 120.841 33.3507V113.433C120.84 113.878 120.663 114.305 120.348 114.62C120.033 114.936 119.606 115.113 119.16 115.113Z" fill="#EDF1FA"/>
<path d="M88.4125 27.7153H46.7897C45.8986 27.7166 45.0443 28.0712 44.4142 28.7013C43.784 29.3314 43.4295 30.1857 43.4282 31.0768V111.712L43.8237 111.592V31.0768C43.8246 30.2905 44.1374 29.5366 44.6935 28.9806C45.2495 28.4245 46.0033 28.1118 46.7897 28.1108H88.5351L88.4125 27.7153ZM124.696 27.7153H46.7897C45.8986 27.7166 45.0443 28.0712 44.4142 28.7013C43.784 29.3314 43.4295 30.1857 43.4282 31.0768V121.638C43.4295 122.53 43.784 123.384 44.4142 124.014C45.0443 124.644 45.8986 124.999 46.7897 125H124.696C125.588 124.999 126.442 124.644 127.072 124.014C127.702 123.384 128.057 122.53 128.058 121.638V31.0768C128.057 30.1857 127.702 29.3314 127.072 28.7013C126.442 28.0712 125.588 27.7166 124.696 27.7153ZM127.662 121.638C127.662 122.425 127.349 123.179 126.793 123.735C126.237 124.291 125.483 124.604 124.696 124.604H46.7897C46.0033 124.604 45.2495 124.291 44.6935 123.735C44.1374 123.179 43.8246 122.425 43.8237 121.638V31.0768C43.8246 30.2905 44.1374 29.5366 44.6935 28.9806C45.2495 28.4245 46.0033 28.1118 46.7897 28.1108H124.696C125.483 28.1118 126.237 28.4245 126.793 28.9806C127.349 29.5366 127.662 30.2905 127.662 31.0768V121.638Z" fill="#1A1B1D"/>
<path d="M103.934 36.4156H67.5516C67.0798 36.4151 66.6274 36.2274 66.2938 35.8938C65.9602 35.5602 65.7725 35.1079 65.772 34.636V25.9358C65.7725 25.464 65.9602 25.0116 66.2938 24.678C66.6274 24.3444 67.0798 24.1567 67.5516 24.1562H103.934C104.406 24.1567 104.859 24.3444 105.192 24.678C105.526 25.0116 105.714 25.464 105.714 25.9358V34.636C105.714 35.1079 105.526 35.5602 105.192 35.8938C104.859 36.2274 104.406 36.4151 103.934 36.4156Z" fill="#79A8ED"/>
<path d="M85.743 24.7493C87.9271 24.7493 89.6976 22.9788 89.6976 20.7947C89.6976 18.6106 87.9271 16.84 85.743 16.84C83.5589 16.84 81.7883 18.6106 81.7883 20.7947C81.7883 22.9788 83.5589 24.7493 85.743 24.7493Z" fill="#79A8ED"/>
<path d="M85.743 23.2034C87.0733 23.2034 88.1517 22.125 88.1517 20.7947C88.1517 19.4644 87.0733 18.3859 85.743 18.3859C84.4127 18.3859 83.3342 19.4644 83.3342 20.7947C83.3342 22.125 84.4127 23.2034 85.743 23.2034Z" fill="white"/>
</svg>
