<svg width="285" height="212" viewBox="0 0 285 212" fill="none" xmlns="http://www.w3.org/2000/svg">
<path opacity="0.1" d="M28.6562 21.2261C26.8829 21.9618 25.063 22.9061 24.0885 24.5614C23.0563 26.31 23.1799 28.4813 23.372 30.5044C25.0465 48.0507 29.4578 66.7114 21.8403 82.6052C18.1427 90.316 11.9582 96.4951 7.03906 103.498C2.11995 110.5 -1.59408 119.243 0.689788 127.481C3.47875 137.547 13.8879 143.128 20.9042 150.874C25.4967 155.939 28.7166 162.093 33.0016 167.421C37.2866 172.749 43.1583 177.443 49.9989 177.756C59.8371 178.209 67.8416 169.713 77.4877 167.745C87.3698 165.73 97.3206 170.858 105.333 176.996C113.346 183.134 120.634 190.57 129.97 194.402C140.28 198.638 151.903 197.99 162.757 200.535C172.639 202.854 181.736 207.787 191.547 210.417C201.357 213.047 212.856 212.887 220.457 206.17C230.364 197.386 229.585 181.739 235.912 170.12C241.789 159.323 253.294 152.878 261.037 143.334C274.971 126.155 274.515 99.8989 262.684 81.2162C250.853 62.5335 229.423 51.2212 207.509 48.2757C197.627 46.9499 187.451 47.1311 177.951 44.1143C152.521 36.0439 137.387 7.12763 111.425 1.11051C94.9214 -2.70784 78.8712 3.90496 64.8139 12.044C52.6122 19.1097 41.3548 15.9584 28.6562 21.2261Z" fill="#79A8ED"/>
<path d="M53.4384 77.9112C53.4384 77.9112 44.0696 86.753 34.0145 87.0165C29.7921 87.1005 25.7109 88.5521 22.3838 91.1533C20.8111 92.3965 19.3556 93.7812 18.0356 95.29" stroke="#535461" stroke-width="2" stroke-miterlimit="10"/>
<path d="M11.6947 95.5069C13.0453 94.8206 18.2004 95.2763 18.2004 95.2763C18.2004 95.2763 15.5268 99.7095 14.1762 100.396C13.8528 100.588 13.4934 100.711 13.1203 100.758C12.7473 100.805 12.3685 100.775 12.0075 100.67C11.6466 100.564 11.3111 100.386 11.0219 100.146C10.7327 99.9053 10.496 99.6081 10.3264 99.2725C10.1568 98.9369 10.058 98.5701 10.0361 98.1947C10.0141 97.8193 10.0695 97.4434 10.1988 97.0904C10.3282 96.7373 10.5286 96.4145 10.7878 96.1421C11.047 95.8698 11.3594 95.6535 11.7057 95.5069H11.6947Z" fill="#79A8ED"/>
<path d="M17.1216 87.6698C18.6286 87.829 22.7077 91.0133 22.7077 91.0133C22.7077 91.0133 18.0411 93.2807 16.5478 93.1242C15.8492 93.0186 15.2182 92.6477 14.7861 92.0887C14.3539 91.5297 14.154 90.8255 14.228 90.1228C14.3019 89.4201 14.6439 88.773 15.1829 88.3161C15.7218 87.8592 16.4162 87.6277 17.1216 87.6698Z" fill="#79A8ED"/>
<path d="M29.9903 81.3535C31.2091 82.2511 33.1252 87.0604 33.1252 87.0604C33.1252 87.0604 27.9617 86.6678 26.7429 85.773C26.1936 85.3291 25.8365 84.6906 25.7458 83.9903C25.6551 83.2899 25.8378 82.5815 26.256 82.0123C26.6742 81.4432 27.2956 81.0572 27.9911 80.9345C28.6866 80.8118 29.4026 80.9618 29.9903 81.3535Z" fill="#79A8ED"/>
<path d="M40.8031 78.7704C42.1564 79.4484 44.8575 83.8652 44.8575 83.8652C44.8575 83.8652 39.7023 84.3511 38.349 83.673C38.0075 83.5239 37.7 83.3069 37.4452 83.0351C37.1903 82.7633 36.9934 82.4425 36.8665 82.0922C36.7396 81.7419 36.6854 81.3694 36.7071 80.9974C36.7288 80.6255 36.826 80.2618 36.9928 79.9287C37.1596 79.5955 37.3924 79.2998 37.6772 79.0595C37.9619 78.8192 38.2926 78.6394 38.6491 78.531C39.0056 78.4227 39.3804 78.388 39.7507 78.4292C40.121 78.4703 40.4791 78.5864 40.8031 78.7704Z" fill="#79A8ED"/>
<path d="M25.5763 96.012C26.0265 94.5654 24.7089 89.5584 24.7089 89.5584C24.7089 89.5584 20.789 92.9403 20.3388 94.3869C20.2119 94.7361 20.1573 95.1074 20.1781 95.4783C20.1989 95.8492 20.2948 96.212 20.46 96.5448C20.6252 96.8775 20.8561 97.1733 21.139 97.4141C21.4218 97.655 21.7505 97.836 22.1053 97.9461C22.4602 98.0561 22.8336 98.0931 23.2031 98.0546C23.5726 98.0161 23.9304 97.903 24.2549 97.7222C24.5795 97.5414 24.8639 97.2966 25.091 97.0026C25.3181 96.7087 25.4832 96.3716 25.5763 96.012Z" fill="#79A8ED"/>
<path d="M38.1843 92.8195C38.1843 91.3042 35.4255 86.9232 35.4255 86.9232C35.4255 86.9232 32.697 91.3152 32.6997 92.836C32.7019 93.564 32.9932 94.2613 33.5095 94.7746C34.0259 95.2878 34.725 95.575 35.453 95.5728C36.181 95.5706 36.8784 95.2793 37.3916 94.7629C37.9049 94.2466 38.192 93.5475 38.1898 92.8195H38.1843Z" fill="#79A8ED"/>
<path d="M50.0126 88.0541C50.2652 86.5608 48.2887 81.7762 48.2887 81.7762C48.2887 81.7762 44.8547 85.6522 44.6049 87.1455C44.5205 87.8461 44.7092 88.5522 45.1318 89.1174C45.5543 89.6825 46.1782 90.0632 46.8741 90.1805C47.5699 90.2978 48.2842 90.1426 48.8686 89.7471C49.453 89.3517 49.8627 88.7464 50.0126 88.0568V88.0541Z" fill="#79A8ED"/>
<path d="M65.6127 54.496C65.6127 54.496 54.3278 48.2977 50.9734 38.8026C49.5953 34.8099 46.9589 31.3721 43.4602 29.0056C41.7907 27.8946 40.0228 26.939 38.1788 26.1508" stroke="#535461" stroke-width="2" stroke-miterlimit="10"/>
<path d="M36.0376 20.1803C37.1054 21.2537 38.2556 26.3018 38.2556 26.3018C38.2556 26.3018 33.2157 25.1214 32.1479 24.0454C31.6764 23.5217 31.4243 22.8367 31.4438 22.1323C31.4634 21.4279 31.7531 20.758 32.2529 20.2613C32.7528 19.7646 33.4246 19.4791 34.1291 19.4641C34.8336 19.449 35.517 19.7055 36.0376 20.1803Z" fill="#79A8ED"/>
<path d="M45.1649 22.9336C45.4778 24.4159 43.7018 29.2774 43.7018 29.2774C43.7018 29.2774 40.114 25.5469 39.8011 24.0618C39.7082 23.7027 39.6891 23.3284 39.7448 22.9617C39.8006 22.5949 39.9302 22.2433 40.1257 21.928C40.3211 21.6127 40.5785 21.3403 40.8822 21.1273C41.1859 20.9142 41.5296 20.765 41.8926 20.6885C42.2556 20.612 42.6303 20.6098 42.9942 20.6822C43.358 20.7546 43.7034 20.8999 44.0095 21.1095C44.3156 21.3191 44.576 21.5885 44.7751 21.9016C44.9741 22.2146 45.1077 22.5648 45.1676 22.9309L45.1649 22.9336Z" fill="#79A8ED"/>
<path d="M55.1294 33.2522C54.6517 34.6879 50.6632 37.9901 50.6632 37.9901C50.6632 37.9901 49.4499 32.9585 49.9275 31.5201C50.1572 30.8285 50.6523 30.2564 51.3037 29.9298C51.9552 29.6031 52.7097 29.5487 53.4014 29.7784C54.093 30.0081 54.6651 30.5031 54.9917 31.1546C55.3183 31.806 55.3728 32.5606 55.1431 33.2522H55.1294Z" fill="#79A8ED"/>
<path d="M60.9159 42.7363C60.688 44.2323 57.3144 48.1605 57.3144 48.1605C57.3144 48.1605 55.2666 43.4061 55.4944 41.91C55.5324 41.5403 55.645 41.1821 55.8256 40.8572C56.0061 40.5323 56.2507 40.2475 56.5446 40.0199C56.8384 39.7924 57.1755 39.6269 57.5352 39.5335C57.8949 39.4401 58.2699 39.4207 58.6374 39.4765C59.0048 39.5323 59.3571 39.6622 59.6729 39.8582C59.9887 40.0542 60.2613 40.3123 60.4744 40.6169C60.6875 40.9214 60.8364 41.2661 60.9123 41.6299C60.9882 41.9938 60.9894 42.3692 60.9159 42.7336V42.7363Z" fill="#79A8ED"/>
<path d="M39.8231 33.5459C41.3383 33.5294 45.6974 30.735 45.6974 30.735C45.6974 30.735 41.2752 28.0448 39.7599 28.0613C39.0319 28.0697 38.337 28.3669 37.8281 28.8876C37.3193 29.4083 37.0381 30.1099 37.0464 30.8379C37.0548 31.5659 37.3521 32.2608 37.8728 32.7697C38.3935 33.2786 39.095 33.5597 39.8231 33.5514V33.5459Z" fill="#79A8ED"/>
<path d="M46.7295 44.5646C48.1679 44.0952 51.4922 40.1258 51.4922 40.1258C51.4922 40.1258 46.466 38.8823 45.0276 39.3517C44.6726 39.453 44.3418 39.6249 44.0548 39.857C43.7677 40.0891 43.5305 40.3767 43.3572 40.7027C43.1839 41.0286 43.0781 41.3861 43.0462 41.7539C43.0142 42.1216 43.0568 42.492 43.1713 42.8429C43.2858 43.1939 43.4699 43.5181 43.7126 43.7962C43.9553 44.0743 44.2516 44.3006 44.5838 44.4616C44.916 44.6226 45.2772 44.7149 45.6459 44.7331C46.0146 44.7512 46.3831 44.6949 46.7295 44.5673V44.5646Z" fill="#79A8ED"/>
<path d="M54.9098 54.3533C56.4086 54.1337 60.356 50.7848 60.356 50.7848C60.356 50.7848 55.6125 48.7095 54.1165 48.9291C53.748 48.9671 53.3911 49.0792 53.0671 49.2588C52.7432 49.4384 52.4589 49.6817 52.2314 49.974C52.004 50.2664 51.838 50.6017 51.7436 50.9599C51.6492 51.318 51.6282 51.6916 51.682 52.0581C51.7357 52.4246 51.8631 52.7764 52.0564 53.0923C52.2497 53.4083 52.505 53.6819 52.8068 53.8966C53.1086 54.1113 53.4508 54.2626 53.8127 54.3416C54.1746 54.4206 54.5487 54.4255 54.9126 54.3561L54.9098 54.3533Z" fill="#79A8ED"/>
<path d="M143.273 204.891C198.153 204.891 242.643 160.402 242.643 105.521C242.643 50.6401 198.153 6.15045 143.273 6.15045C88.3918 6.15045 43.9022 50.6401 43.9022 105.521C43.9022 160.402 88.3918 204.891 143.273 204.891Z" fill="url(#paint0_linear)"/>
<path d="M143.273 203.244C197.244 203.244 240.996 159.492 240.996 105.521C240.996 51.5496 197.244 7.79742 143.273 7.79742C89.3014 7.79742 45.5492 51.5496 45.5492 105.521C45.5492 159.492 89.3014 203.244 143.273 203.244Z" fill="#79A8ED"/>
<path d="M143.273 183.205C186.177 183.205 220.957 148.425 220.957 105.521C220.957 62.6167 186.177 27.8362 143.273 27.8362C100.369 27.8362 65.588 62.6167 65.588 105.521C65.588 148.425 100.369 183.205 143.273 183.205Z" fill="#DDE1EC"/>
<path opacity="0.3" d="M145.468 41.5614H141.076V110.187H145.468V41.5614Z" fill="#535461"/>
<g opacity="0.1">
<path opacity="0.1" d="M209.977 103.874H147.939V109.364H209.977V103.874Z" fill="#1A1B1D"/>
<path opacity="0.1" d="M104.14 83.3338L101.593 88.1973L140.628 108.639L143.175 103.775L104.14 83.3338Z" fill="#1A1B1D"/>
<path opacity="0.1" d="M143.273 114.854C147.821 114.854 151.508 111.167 151.508 106.619C151.508 102.071 147.821 98.3837 143.273 98.3837C138.724 98.3837 135.037 102.071 135.037 106.619C135.037 111.167 138.724 114.854 143.273 114.854Z" fill="#1A1B1D"/>
</g>
<path d="M209.977 102.776H147.939V108.266H209.977V102.776Z" fill="#535461"/>
<path d="M143.193 102.684L104.158 82.2421L101.611 87.1056L140.646 107.547L143.193 102.684Z" fill="#535461"/>
<path d="M143.273 113.756C147.821 113.756 151.508 110.069 151.508 105.521C151.508 100.973 147.821 97.2856 143.273 97.2856C138.724 97.2856 135.037 100.973 135.037 105.521C135.037 110.069 138.724 113.756 143.273 113.756Z" fill="#535461"/>
<g opacity="0.1">
<path opacity="0.1" d="M71.6216 114.854C71.6216 71.9489 106.401 37.1693 149.306 37.1693C161.348 37.1587 173.228 39.9521 184.003 45.3285C194.779 50.7048 204.155 58.5163 211.388 68.1443C198.168 44.1197 172.639 27.8362 143.267 27.8362C100.362 27.8362 65.5825 62.6158 65.5825 105.521C65.5572 122.376 71.039 138.778 81.1935 152.23C74.8961 140.78 71.603 127.921 71.6216 114.854Z" fill="#1A1B1D"/>
</g>
<path d="M215.05 48.3746C214.127 47.488 206.364 53.3157 206.364 53.3157C206.364 53.3157 203.6 53.8208 204.259 55.7176C204.918 57.6144 201.363 68.2377 201.363 68.2377L199.916 66.2146C200.056 63.8401 199.403 62.1574 198.766 61.1088C198.714 61.0237 198.662 60.9414 198.61 60.8645L198.862 60.7767C198.766 59.481 196.694 57.5074 195.593 56.5411C195.593 56.4011 195.593 56.2666 195.593 56.1239C195.662 54.5757 196.282 52.9424 195.593 51.5396C194.813 49.9393 192.532 49.135 192.34 47.3782C192.225 46.3296 192.933 45.3825 193.246 44.3723C193.993 41.9567 192.442 39.4917 190.959 37.4109C190.457 36.6308 189.846 35.9264 189.145 35.3192C188.477 34.8307 187.743 34.4389 186.965 34.1553C184.794 33.2769 182.573 32.835 180.333 32.2338C178.184 31.6628 176.202 31.3911 174.02 32.1075C173.502 32.2472 173.029 32.5186 172.647 32.8953C172.128 33.4773 172.06 34.3063 171.719 35.0008C171.17 36.118 169.987 36.7851 168.941 37.5015C167.896 38.218 166.847 39.2007 166.841 40.436C166.841 42.19 168.845 43.2935 169.515 44.9268C170.141 46.4476 169.515 48.1413 169.166 49.7444C169.021 50.2625 169.007 50.8088 169.125 51.3338C169.263 51.725 169.472 52.0878 169.74 52.4043C170.155 52.9533 170.599 53.4639 171.041 53.9855L170.838 54.0651C167.154 53.6863 164.785 58.3638 164.785 58.3638C164.956 58.3995 165.118 58.4407 165.277 58.4873L165.12 58.6905C164.007 60.1361 163.097 61.7275 162.416 63.4202L159.397 67.4664C159.397 67.4664 158.738 57.3481 160.319 55.0725C161.9 52.7969 158.873 51.4051 158.873 51.4051C158.873 51.4051 152.284 44.0704 151.37 44.7018C150.456 45.3331 153.608 53.302 156.372 54.5674C156.372 54.5674 156.646 57.0956 156.097 58.7399C155.765 59.7802 153.992 70.7549 153.992 70.7549C153.992 70.7549 152.413 79.9865 159.652 75.4215C164.354 72.4623 167.393 67.3675 168.941 64.1668C169.049 63.9417 169.151 63.7267 169.246 63.5217C169.318 63.8612 169.366 64.2051 169.392 64.5511L169.666 75.1277C169.736 77.7438 169.165 80.3372 168.003 82.6821L164.777 89.2235L165.137 89.3333L164.92 89.6462C162.795 92.7728 159.183 99.8029 166.619 103.385L176.501 104.651L175.974 107.179C175.974 107.179 171.895 114.892 170.709 120.204C169.973 123.457 168.822 126.602 167.286 129.562L167.591 129.724C167.528 129.795 167.462 129.869 167.399 129.946C166.799 130.62 166.403 131.45 166.257 132.34L164.917 134.239C164.917 134.239 164.39 142.079 165.444 143.979C166.021 145.016 167.934 145.675 169.562 146.06C171.977 146.633 173.926 144.138 172.644 142.082L172.628 142.054H172.603C172.329 140.778 171.489 136.817 171.763 135.313C171.84 134.884 171.911 134.459 171.947 134.025C172.013 133.455 172.186 132.903 172.458 132.397C172.502 132.312 172.548 132.23 172.595 132.148L172.738 132.208C173.18 132.397 173.616 132.576 174.031 132.732C173.388 133.317 172.933 134.528 173.482 137.017C173.482 137.017 173.534 143.246 174.009 144.226C174.484 145.206 179.798 146.501 180.72 145.491C181.643 144.481 180.127 141 180.127 141L180.081 141.033C179.776 139.016 179.4 135.403 180.325 133.981C180.698 133.408 181.061 132.815 181.385 132.26L181.585 131.917C183.303 132.774 185.121 133.419 186.114 132.971C186.114 132.971 190.457 122.853 190.193 121.59C189.93 120.328 196.905 106.034 196.905 106.034C196.905 106.034 202.826 99.446 195.59 94.9057C193.293 93.4591 191.618 92.4874 190.402 91.8313L189.384 86.5059C188.86 83.7141 188.954 80.8414 189.658 78.0896L190.756 73.9007L190.847 73.5439C190.847 73.5439 193.611 67.8534 193.479 65.1962C193.469 64.9898 193.492 64.7831 193.548 64.5841C193.578 64.7103 193.611 64.8421 193.647 64.9793C194.373 67.7411 195.33 70.4371 196.507 73.0388C198.607 77.7767 201.723 77.4006 203.43 76.7281C203.795 76.5867 204.12 76.3566 204.374 76.0585C204.629 75.7605 204.805 75.4038 204.888 75.0207C205.502 72.0725 207.191 63.8127 207.298 61.5316C207.393 59.7478 207.614 57.973 207.957 56.2199C212.288 53.6863 215.972 49.2613 215.05 48.3746Z" fill="url(#paint1_linear)"/>
<path d="M182.826 129.414C182.826 129.414 182.247 130.575 181.453 131.969C181.143 132.518 180.797 133.108 180.443 133.677C179.189 135.683 180.443 142.076 180.443 142.076L177.698 142.453L174.953 141.08L174.451 136.441V133.048L177.58 129.548L178.952 128.033L182.826 129.414Z" fill="#F8BDC5"/>
<g opacity="0.1">
<path opacity="0.1" d="M182.826 129.414C182.826 129.414 182.247 130.575 181.453 131.969C180.241 131.322 179.07 130.601 177.945 129.812L177.704 129.641L177.575 129.548L178.947 128.033L182.826 129.414Z" fill="#1A1B1D"/>
</g>
<path d="M196.246 105.966C196.246 105.966 189.601 120.133 189.853 121.387C190.106 122.642 185.966 132.672 185.966 132.672C185.022 133.117 183.287 132.477 181.651 131.629C180.417 130.971 179.225 130.238 178.082 129.433L177.841 129.263L177.695 129.158L188.604 98.9409L178.953 91.8615L178.239 91.3372L173.924 88.153L187.1 90.5356C187.1 90.5356 187.558 90.478 189.982 91.8341C191.146 92.4846 192.763 93.4591 194.997 94.925C201.885 99.446 196.246 105.966 196.246 105.966Z" fill="#5E52AD"/>
<g opacity="0.03">
<path opacity="0.03" d="M196.246 105.966C196.246 105.966 189.601 120.133 189.853 121.387C190.106 122.642 185.966 132.672 185.966 132.672C185.022 133.117 183.287 132.477 181.651 131.629C180.417 130.971 179.225 130.238 178.082 129.433L177.841 129.263L177.695 129.158L188.604 98.9409L178.953 91.8615L178.239 91.3372L173.924 88.153L187.1 90.5356C187.1 90.5356 187.558 90.478 189.982 91.8341C191.146 92.4846 192.763 93.4591 194.997 94.925C201.885 99.446 196.246 105.966 196.246 105.966Z" fill="#1A1B1D"/>
</g>
<path d="M176.056 131.92C176.056 131.92 172.795 131.417 173.926 136.685C173.926 136.685 173.976 142.861 174.429 143.822C174.882 144.783 179.946 146.079 180.822 145.077C181.698 144.075 180.256 140.627 180.256 140.627C180.256 140.627 176.559 143.323 175.554 140.438C174.549 137.553 176.056 131.92 176.056 131.92Z" fill="#5D3E53"/>
<path d="M173.797 130.918C173.442 131.257 173.152 131.659 172.944 132.104C172.685 132.608 172.52 133.155 172.458 133.718C172.425 134.146 172.356 134.572 172.285 134.994C171.972 136.781 173.171 142.076 173.171 142.076L168.406 142.829L166.652 140.948L166.276 136.812C166.744 135.393 166.998 133.913 167.028 132.419C167.028 131.341 167.577 130.377 168.126 129.674C168.498 129.206 168.925 128.783 169.397 128.414C169.397 128.414 174.802 130.039 173.797 130.918Z" fill="#F8BDC5"/>
<g opacity="0.1">
<path opacity="0.1" d="M173.797 130.918C173.441 131.257 173.152 131.659 172.944 132.104C170.992 131.223 168.941 130.111 168.195 129.699L168.137 129.669C168.509 129.2 168.936 128.777 169.408 128.409C169.408 128.409 174.802 130.039 173.797 130.918Z" fill="#1A1B1D"/>
</g>
<path d="M189.222 102.205C189.222 102.205 186.09 108.098 184.08 112.987C182.763 116.199 180.04 123.847 178.316 128.716L178.063 129.436C177.305 131.59 176.8 133.048 176.8 133.048C176.466 133.05 176.134 133.001 175.815 132.903C175.518 132.823 175.186 132.716 174.832 132.584L174.434 132.433C174.039 132.279 173.611 132.101 173.202 131.914C171.209 131.025 169.084 129.867 168.313 129.444L168.022 129.282C169.493 126.334 170.591 123.215 171.291 119.995C172.419 114.73 176.306 107.094 176.306 107.094L176.809 104.585L167.404 103.33C160.319 99.7892 163.761 92.8085 165.785 89.7094C166.13 89.1714 166.502 88.6519 166.902 88.153L174.426 89.8C174.426 89.8 175.612 90.1788 178.247 91.3454L179.458 91.8944C180.934 92.5725 182.752 93.4454 184.948 94.5654C192.354 98.3096 189.222 102.205 189.222 102.205Z" fill="#5E52AD"/>
<path d="M173.125 141.7C173.393 142.152 173.522 142.674 173.494 143.199C173.467 143.724 173.284 144.229 172.97 144.65C172.656 145.072 172.224 145.391 171.729 145.568C171.234 145.744 170.697 145.77 170.188 145.642C168.648 145.261 166.822 144.607 166.273 143.578C165.271 141.698 165.771 133.924 165.771 133.924L167.088 131.98C167.088 131.98 166.399 140.569 168.03 141.313C169.661 142.057 173.108 141.662 173.108 141.662L173.125 141.7Z" fill="#5D3E53"/>
<path d="M174.459 32.6647C173.958 32.804 173.503 33.074 173.141 33.447C172.647 34.0235 172.592 34.847 172.257 35.536C171.736 36.634 170.61 37.3065 169.611 38.0065C168.612 38.7065 167.615 39.692 167.61 40.9163C167.61 42.6566 169.532 43.7491 170.157 45.366C170.753 46.8757 170.157 48.5529 169.825 50.1423C169.687 50.6569 169.674 51.1972 169.787 51.718C169.918 52.1043 170.117 52.464 170.374 52.7803C171.585 54.4273 173.089 55.8877 173.899 57.7626C174.514 59.1872 174.684 60.7601 174.846 62.3056C175.079 64.5291 175.313 66.7937 174.89 68.9897C174.849 69.1211 174.849 69.2619 174.89 69.3933C174.962 69.5192 175.075 69.6163 175.211 69.6678C176.01 70.0559 176.879 70.2785 177.766 70.3222C178.653 70.3659 179.539 70.2298 180.373 69.9221C181.206 69.6144 181.968 69.1414 182.614 68.5317C183.259 67.9219 183.775 67.1879 184.13 66.3737C184.679 65.1302 184.89 63.6287 185.977 62.8217C186.104 62.7167 186.256 62.6475 186.419 62.6213C186.675 62.6283 186.924 62.7115 187.133 62.8601C188.544 63.6232 190.254 63.6452 191.827 63.3322C192.776 63.1428 193.748 62.8052 194.377 62.064C195.615 60.5927 194.926 58.3939 195.008 56.4751C195.074 54.9407 195.664 53.3211 195.008 51.9321C194.267 50.3455 192.09 49.5494 191.909 47.8145C191.799 46.7769 192.475 45.8354 192.774 44.8362C193.485 42.4397 192.008 39.9967 190.597 37.9351C190.122 37.1661 189.541 36.4684 188.87 35.8626C188.237 35.3807 187.539 34.9924 186.795 34.7097C184.728 33.8395 182.62 33.4003 180.481 32.8074C178.434 32.2227 176.548 31.951 174.459 32.6647Z" fill="#85555C"/>
<path d="M184.959 68.4765H177.684V56.6893C177.9 55.5572 178.027 54.4099 178.063 53.258C178.063 52.871 178.063 52.4757 178.063 52.0776C177.994 50.6722 177.703 49.2695 176.94 48.413C174.934 46.1566 183.46 46.5327 183.46 46.5327C183.721 47.5688 184.061 48.5837 184.475 49.5687C185.093 51.1056 185.915 52.5524 186.919 53.8701C187.802 55.0427 188.933 56.0054 190.232 56.6893C195.239 59.1983 184.959 68.4765 184.959 68.4765Z" fill="#F8BDC5"/>
<g opacity="0.1">
<path opacity="0.1" d="M184.467 49.5687C183.729 50.5317 182.741 51.2745 181.611 51.7167C180.481 52.1589 179.251 52.2837 178.055 52.0776C177.986 50.6722 177.695 49.2695 176.932 48.413C174.926 46.1566 183.452 46.5327 183.452 46.5327C183.713 47.5688 184.053 48.5837 184.467 49.5687Z" fill="#1A1B1D"/>
</g>
<path d="M179.189 51.8031C182.859 51.8031 185.834 48.8277 185.834 45.1574C185.834 41.4871 182.859 38.5117 179.189 38.5117C175.518 38.5117 172.543 41.4871 172.543 45.1574C172.543 48.8277 175.518 51.8031 179.189 51.8031Z" fill="#F8BDC5"/>
<path d="M206.773 56.5658C206.447 58.3048 206.238 60.0637 206.148 61.8308C206.046 64.0899 204.437 72.2811 203.85 75.2046C203.776 75.5795 203.61 75.9302 203.368 76.2257C203.126 76.5212 202.814 76.7522 202.461 76.8983C200.83 77.5653 197.866 77.9386 195.873 73.2419C194.749 70.6575 193.838 67.986 193.147 65.2538C192.903 64.3354 192.719 63.4019 192.598 62.4594L196.99 60.0767C197.404 60.4634 197.754 60.9127 198.028 61.408C198.634 62.4484 199.258 64.1174 199.126 66.4699L200.498 68.4765C200.498 68.4765 203.883 57.9438 203.243 56.0634C202.604 54.1831 205.25 53.6807 205.25 53.6807C205.25 53.6807 212.648 47.9162 213.526 48.7918C214.405 49.6675 210.91 54.0568 206.773 56.5658Z" fill="#F8BDC5"/>
<path d="M170.789 61.581C170.446 62.5618 170.052 63.5238 169.608 64.4633C168.132 67.6393 165.238 72.6984 160.758 75.6246C153.863 80.1374 155.367 70.9855 155.367 70.9855C155.367 70.9855 157.055 60.1041 157.374 59.0748C157.876 57.4442 157.624 54.938 157.624 54.938C154.991 53.6835 151.983 45.786 152.858 45.1574C153.734 44.5288 159.995 51.8031 159.995 51.8031C159.995 51.8031 162.88 53.1757 161.368 55.4403C159.855 57.705 160.489 67.7271 160.489 67.7271L163.391 63.7221C164.036 62.0509 164.903 60.474 165.968 59.0336C166.517 58.2842 166.902 57.8313 166.902 57.8313L170.789 61.581Z" fill="#F8BDC5"/>
<g opacity="0.1">
<path opacity="0.1" d="M198.031 61.4081C197.108 61.7485 193.537 63.1896 193.142 65.2511C192.897 64.3327 192.714 63.3992 192.593 62.4567L196.985 60.074C197.401 60.461 197.754 60.9112 198.031 61.4081Z" fill="#1A1B1D"/>
</g>
<g opacity="0.1">
<path opacity="0.1" d="M170.789 61.581C170.446 62.5617 170.052 63.5238 169.608 64.4632C169.438 63.2225 168.738 60.0492 165.969 59.0253C166.518 58.2759 166.902 57.823 166.902 57.823L170.789 61.581Z" fill="#1A1B1D"/>
</g>
<g opacity="0.1">
<path opacity="0.1" d="M184.959 68.4765H177.684V56.6893C177.9 55.5572 178.027 54.4099 178.063 53.258C179.559 54.7019 179.189 56.9391 179.189 56.9391L183.076 65.7232L184.959 57.9575L184.333 56.9556L186.913 53.8866C187.796 55.0591 188.928 56.0218 190.226 56.7058C195.239 59.1983 184.959 68.4765 184.959 68.4765Z" fill="#1A1B1D"/>
</g>
<g opacity="0.1">
<path opacity="0.1" d="M190.097 92.545C190.097 92.545 184.399 92.0921 179.455 91.878L178.958 91.856C178.255 91.8286 177.585 91.8066 176.929 91.7901C172.131 91.6748 166.704 89.9976 165.782 89.7039C166.128 89.1677 166.502 88.6501 166.902 88.153L174.426 89.8C174.426 89.8 175.612 90.1788 178.247 91.3454L173.924 88.153L187.1 90.5356C187.1 90.5356 187.558 90.478 189.982 91.8341L190.097 92.545Z" fill="#1A1B1D"/>
</g>
<path d="M184.959 58.4461L184.333 57.4441L187.116 54.1144C187.116 54.1144 192.856 56.9281 194.36 56.3104C194.36 56.3104 197.998 59.33 198.121 61.0758C198.121 61.0758 192.856 62.8299 192.98 65.4679C193.103 68.1059 190.482 73.7414 190.482 73.7414L189.384 78.2488C188.708 80.9804 188.614 83.8236 189.109 86.5937L190.111 92.1744C190.111 92.1744 182.211 91.5485 176.935 91.4222C171.659 91.2959 165.65 89.2921 165.65 89.2921L168.727 82.8165C169.837 80.4796 170.38 77.9142 170.314 75.3281L170.039 64.8448C170.039 64.8448 169.79 59.5798 165.647 58.7014C165.647 58.7014 167.904 54.0623 171.412 54.4383C171.412 54.4383 176.523 52.3054 178.041 53.7466C179.559 55.1877 179.186 57.4469 179.186 57.4469L183.073 66.231L184.959 58.4461Z" fill="#ED677B"/>
<g opacity="0.1">
<path opacity="0.1" d="M174.393 43.7876C175.4 43.7876 176.191 42.7198 177.198 42.7747C177.72 42.8022 178.167 43.1343 178.598 43.4335C180.227 44.5612 182.039 45.3972 183.954 45.904C184.698 46.1017 185.486 46.2499 186.232 46.0687C186.979 45.8876 187.679 45.3001 187.764 44.5343C187.785 44.1967 187.74 43.8583 187.632 43.5378C186.787 40.593 184.875 38.069 182.268 36.4584C181.225 35.8188 179.952 35.3302 178.796 35.7309C177.753 36.0905 177.08 37.0678 176.325 37.8721C175.757 38.4743 175.11 38.9986 174.404 39.4312C173.855 39.7634 173.031 39.9803 172.716 40.5897C172.12 41.7261 173.056 43.7766 174.393 43.7876Z" fill="#1A1B1D"/>
</g>
<path d="M174.393 43.5378C175.4 43.5378 176.191 42.47 177.198 42.5249C177.72 42.5523 178.167 42.8845 178.598 43.1837C180.227 44.3114 182.039 45.1473 183.954 45.6542C184.698 45.8519 185.486 46.0001 186.232 45.8189C186.979 45.6378 187.679 45.0503 187.764 44.2845C187.785 43.9469 187.74 43.6085 187.632 43.288C186.787 40.3432 184.875 37.8192 182.268 36.2086C181.225 35.569 179.952 35.0803 178.796 35.4811C177.753 35.8407 177.08 36.818 176.325 37.6222C175.757 38.2245 175.11 38.7488 174.404 39.1814C173.855 39.5136 173.031 39.7304 172.716 40.3398C172.12 41.4873 173.056 43.5241 174.393 43.5378Z" fill="#85555C"/>
<path opacity="0.05" d="M171.354 72.1741C171.354 72.1741 177.498 74.4305 181.511 72.6764L183.518 72.8027C183.518 72.8027 186.853 75.1415 190.38 74.0956" fill="#1A1B1D"/>
<path opacity="0.05" d="M200.443 68.4133C200.443 68.4133 199.441 70.796 199.941 71.5482L200.443 68.4133Z" fill="#1A1B1D"/>
<path opacity="0.05" d="M160.445 67.6612C160.445 67.6612 160.948 70.0439 160.445 70.796V67.6612Z" fill="#1A1B1D"/>
<path d="M264.433 121.955C264.433 121.955 252.948 133.441 259.432 150.482C265.915 167.523 248.32 195.863 248.32 195.863C248.32 195.863 248.509 195.835 248.869 195.775C272.457 191.611 284.175 164.635 271.059 144.594C266.171 137.141 262.168 128.401 264.433 121.955Z" fill="#79A8ED"/>
<path opacity="0.1" d="M264.433 122.147C264.433 122.147 252.948 133.633 259.432 150.674C265.915 167.715 248.32 196.052 248.32 196.052C248.32 196.052 248.509 196.025 248.869 195.964C272.457 191.8 284.175 164.825 271.059 144.783C266.171 137.333 262.168 128.593 264.433 122.147Z" fill="#1A1B1D"/>
<path d="M264.433 121.955C264.433 121.955 257.949 136.032 264.433 147.517C270.917 159.002 265.531 191.232 248.317 195.863" stroke="#535461" stroke-miterlimit="10"/>
<path d="M284.889 168.407C284.889 168.407 271.784 166.321 270.59 178.064C269.396 189.807 245.382 191.435 245.382 191.435L245.833 191.734C265.652 204.746 284.601 200.021 281.743 182.744C280.689 176.324 280.777 169.873 284.889 168.407Z" fill="#79A8ED"/>
<path d="M284.889 168.407C284.889 168.407 274.716 170.639 275.556 179.889C276.396 189.14 260.458 200.227 245.393 191.438" stroke="#535461" stroke-miterlimit="10"/>
<path d="M273.36 191.863C273.36 191.863 263.039 189.799 260.285 187.046C257.532 184.292 245.146 179.478 243.771 182.928C242.396 186.379 225.193 198.067 236.889 200.131C248.586 202.195 264.414 202.876 267.853 201.504C271.293 200.131 273.36 191.863 273.36 191.863Z" fill="#A8A8A8"/>
<path opacity="0.2" d="M236.889 198.844C248.589 200.908 264.414 201.589 267.853 200.216C270.475 199.168 272.295 194.133 273.014 191.789L273.357 191.86C273.357 191.86 271.293 200.118 267.853 201.493C264.414 202.868 248.586 202.182 236.889 200.12C233.513 199.525 232.547 198.125 232.912 196.354C233.197 197.51 234.375 198.399 236.889 198.844Z" fill="#1A1B1D"/>
<defs>
<linearGradient id="paint0_linear" x1="143.273" y1="204.891" x2="143.273" y2="6.15045" gradientUnits="userSpaceOnUse">
<stop stop-color="#808080" stop-opacity="0.25"/>
<stop offset="0.54" stop-color="#808080" stop-opacity="0.12"/>
<stop offset="1" stop-color="#808080" stop-opacity="0.1"/>
</linearGradient>
<linearGradient id="paint1_linear" x1="48038.9" y1="68285.7" x2="48038.9" y2="20550.9" gradientUnits="userSpaceOnUse">
<stop stop-color="#808080" stop-opacity="0.25"/>
<stop offset="0.54" stop-color="#808080" stop-opacity="0.12"/>
<stop offset="1" stop-color="#808080" stop-opacity="0.1"/>
</linearGradient>
</defs>
</svg>
