<svg width="195" height="105" viewBox="0 0 195 105" fill="none" xmlns="http://www.w3.org/2000/svg">
<path d="M98.1655 105C150.525 105 192.97 102.19 192.97 98.7237C192.97 95.2574 150.525 92.4474 98.1655 92.4474C45.8065 92.4474 3.36108 95.2574 3.36108 98.7237C3.36108 102.19 45.8065 105 98.1655 105Z" fill="#F2F2F2"/>
<path d="M94.5306 30.0151C79.0844 30.0151 67.9941 39.925 67.9941 63.0481C67.9941 89.2542 79.0844 96.1911 94.5306 96.1911C109.977 96.1911 121.728 88.5935 121.728 63.0481C121.728 35.7408 109.977 30.0151 94.5306 30.0151ZM94.6321 87.4924C83.9337 87.4924 78.3445 81.2159 78.3445 63.065C78.3445 47.0494 84.1625 38.6037 94.8609 38.6037C105.559 38.6037 111.377 44.1514 111.377 63.065C111.377 80.7583 105.331 87.4924 94.6321 87.4924Z" fill="#2F2E41"/>
<path d="M58.7488 77.9138H52.3625V59.1076C52.3625 58.1087 51.9657 57.1508 51.2593 56.4445C50.553 55.7382 49.5951 55.3413 48.5962 55.3413H47.0997C46.6051 55.3413 46.1154 55.4388 45.6584 55.628C45.2015 55.8173 44.7863 56.0947 44.4366 56.4445C44.0868 56.7942 43.8094 57.2094 43.6202 57.6663C43.4309 58.1233 43.3335 58.613 43.3335 59.1076V77.9138H25.3197C24.9491 77.9138 24.5848 77.8181 24.2622 77.6358C23.9395 77.4535 23.6694 77.1909 23.4782 76.8735C23.2869 76.5561 23.1809 76.1947 23.1704 75.8243C23.16 75.4538 23.2455 75.087 23.4186 74.7593L42.4842 38.6742C42.7219 38.2244 42.866 37.731 42.9077 37.2239C42.9495 36.7168 42.888 36.2064 42.7271 35.7237C42.5662 35.241 42.3092 34.7959 41.9715 34.4153C41.6338 34.0347 41.2225 33.7264 40.7624 33.5092L39.6369 32.9777C38.763 32.565 37.7638 32.5041 36.8462 32.8075C35.9286 33.1109 35.1628 33.7555 34.7072 34.6078L11.4542 78.1069C11.0582 78.8476 10.8511 79.6746 10.8511 80.5145V80.5145C10.8511 81.1852 10.9832 81.8493 11.2398 82.4689C11.4965 83.0885 11.8727 83.6515 12.3469 84.1257C12.8211 84.5999 13.3841 84.9761 14.0037 85.2328C14.6233 85.4894 15.2874 85.6215 15.9581 85.6215H43.3335V97.5134C43.3335 98.1062 43.4502 98.6933 43.6771 99.241C43.904 99.7887 44.2365 100.286 44.6557 100.706C45.0749 101.125 45.5726 101.457 46.1203 101.684C46.6681 101.911 47.2551 102.028 47.848 102.028H47.848C48.4408 102.028 49.0279 101.911 49.5756 101.684C50.1233 101.457 50.621 101.125 51.0402 100.706C51.4594 100.286 51.7919 99.7887 52.0188 99.241C52.2457 98.6933 52.3625 98.1062 52.3625 97.5134V85.6215H58.7488C59.7709 85.6215 60.7512 85.2155 61.4739 84.4928C62.1966 83.77 62.6027 82.7898 62.6027 81.7677V81.7677C62.6027 80.7456 62.1966 79.7653 61.4739 79.0426C60.7512 78.3199 59.7709 77.9138 58.7488 77.9138V77.9138Z" fill="#6C63FF"/>
<path d="M177.005 77.9138H170.618V59.1076C170.618 58.1087 170.221 57.1508 169.515 56.4445C168.809 55.7382 167.851 55.3413 166.852 55.3413H165.356C164.861 55.3413 164.371 55.4388 163.914 55.628C163.457 55.8173 163.042 56.0947 162.692 56.4445C162.343 56.7942 162.065 57.2094 161.876 57.6663C161.687 58.1233 161.589 58.613 161.589 59.1076V77.9138H143.576C143.205 77.9138 142.841 77.8181 142.518 77.6358C142.195 77.4535 141.925 77.1909 141.734 76.8735C141.543 76.5561 141.437 76.1947 141.426 75.8243C141.416 75.4538 141.501 75.087 141.674 74.7593L160.74 38.6743C160.978 38.2244 161.122 37.731 161.164 37.2239C161.205 36.7168 161.144 36.2064 160.983 35.7237C160.822 35.241 160.565 34.7959 160.227 34.4153C159.89 34.0347 159.478 33.7264 159.018 33.5092L157.893 32.9777C157.019 32.565 156.02 32.5041 155.102 32.8075C154.184 33.1109 153.419 33.7555 152.963 34.6078L129.71 78.1069C129.314 78.8476 129.107 79.6746 129.107 80.5145V80.5145C129.107 81.869 129.645 83.168 130.603 84.1257C131.56 85.0835 132.859 85.6215 134.214 85.6215H161.589V97.5134C161.589 98.7107 162.065 99.859 162.912 100.706C163.758 101.552 164.906 102.028 166.104 102.028V102.028C167.301 102.028 168.449 101.552 169.296 100.706C170.143 99.859 170.618 98.7107 170.618 97.5134V85.6215H177.005C178.027 85.6215 179.007 85.2155 179.73 84.4928C180.452 83.77 180.858 82.7898 180.858 81.7677V81.7677C180.858 80.7456 180.452 79.7653 179.73 79.0426C179.007 78.3199 178.027 77.9138 177.005 77.9138Z" fill="#6C63FF"/>
<path d="M60.5079 75.7106H54.1215V56.9044C54.1215 56.4098 54.0241 55.92 53.8348 55.4631C53.6455 55.0061 53.3681 54.5909 53.0184 54.2412C52.6687 53.8915 52.2535 53.6141 51.7965 53.4248C51.3396 53.2355 50.8498 53.1381 50.3552 53.1381H48.8588C47.8599 53.1381 46.9019 53.5349 46.1956 54.2412C45.4893 54.9475 45.0925 55.9055 45.0925 56.9044V75.7106H27.0787C26.7081 75.7106 26.3438 75.6148 26.0212 75.4325C25.6985 75.2503 25.4285 74.9877 25.2372 74.6703C25.0459 74.3529 24.9399 73.9914 24.9295 73.621C24.9191 73.2506 25.0045 72.8837 25.1777 72.5561L44.2432 36.471C44.4809 36.0211 44.625 35.5277 44.6668 35.0206C44.7085 34.5135 44.6471 34.0032 44.4862 33.5205C44.3252 33.0378 44.0682 32.5927 43.7305 32.2121C43.3928 31.8314 42.9815 31.5232 42.5214 31.3059L41.3959 30.7744C40.522 30.3618 39.5229 30.3008 38.6053 30.6042C37.6877 30.9077 36.9218 31.5522 36.4662 32.4045L13.2132 75.9037C12.8173 76.6444 12.6101 77.4713 12.6101 78.3113V78.3113C12.6101 79.6657 13.1482 80.9647 14.1059 81.9225C15.0637 82.8802 16.3627 83.4183 17.7171 83.4183H45.0925V95.3101C45.0925 95.903 45.2093 96.49 45.4361 97.0377C45.663 97.5855 45.9956 98.0831 46.4148 98.5024C46.834 98.9216 47.3316 99.2541 47.8794 99.481C48.4271 99.7079 49.0141 99.8246 49.607 99.8246H49.607C50.8043 99.8246 51.9526 99.349 52.7992 98.5024C53.6459 97.6557 54.1215 96.5074 54.1215 95.3101V83.4183H60.5079C61.0139 83.4183 61.5151 83.3186 61.9827 83.1249C62.4502 82.9312 62.8751 82.6474 63.2329 82.2895C63.5908 81.9316 63.8747 81.5068 64.0683 81.0392C64.262 80.5717 64.3617 80.0705 64.3617 79.5644V79.5644C64.3617 79.0583 64.262 78.5572 64.0683 78.0896C63.8747 77.6221 63.5908 77.1972 63.2329 76.8394C62.8751 76.4815 62.4502 76.1976 61.9827 76.004C61.5151 75.8103 61.014 75.7106 60.5079 75.7106V75.7106Z" stroke="#3F3D56" stroke-miterlimit="10"/>
<path d="M180.309 75.7106H173.923V56.9044C173.923 55.9055 173.526 54.9475 172.82 54.2412C172.113 53.5349 171.155 53.1381 170.156 53.1381H168.66C168.165 53.1381 167.676 53.2355 167.219 53.4248C166.762 53.6141 166.347 53.8915 165.997 54.2412C165.647 54.5909 165.37 55.0061 165.18 55.4631C164.991 55.92 164.894 56.4098 164.894 56.9044V75.7106H146.88C146.509 75.7106 146.145 75.6148 145.822 75.4325C145.5 75.2503 145.23 74.9877 145.038 74.6703C144.847 74.3529 144.741 73.9914 144.731 73.621C144.72 73.2506 144.806 72.8837 144.979 72.5561L164.044 36.471C164.282 36.0211 164.426 35.5277 164.468 35.0206C164.51 34.5135 164.448 34.0032 164.287 33.5205C164.127 33.0378 163.869 32.5927 163.532 32.2121C163.194 31.8314 162.783 31.5232 162.323 31.3059L161.197 30.7744C160.323 30.3618 159.324 30.3008 158.407 30.6042C157.489 30.9077 156.723 31.5522 156.267 32.4045L133.015 75.9037C132.619 76.6444 132.411 77.4713 132.411 78.3113C132.411 79.6657 132.949 80.9647 133.907 81.9225C134.865 82.8802 136.164 83.4183 137.518 83.4183H164.894V95.3101C164.894 96.5074 165.369 97.6557 166.216 98.5024C167.063 99.349 168.211 99.8246 169.408 99.8246V99.8246C170.606 99.8246 171.754 99.349 172.6 98.5024C173.447 97.6557 173.923 96.5074 173.923 95.3101V83.4183H180.309C180.815 83.4183 181.316 83.3186 181.784 83.1249C182.251 82.9312 182.676 82.6474 183.034 82.2895C183.392 81.9316 183.676 81.5068 183.87 81.0392C184.063 80.5717 184.163 80.0705 184.163 79.5644V79.5644C184.163 78.5423 183.757 77.5621 183.034 76.8394C182.311 76.1166 181.331 75.7106 180.309 75.7106V75.7106Z" stroke="#3F3D56" stroke-miterlimit="10"/>
<path d="M98.0555 28.0336C82.6093 28.0336 71.519 37.9434 71.519 61.0665C71.519 87.2726 82.6093 94.2095 98.0555 94.2095C113.502 94.2095 125.253 86.612 125.253 61.0665C125.253 33.7593 113.502 28.0336 98.0555 28.0336ZM98.157 85.5109C87.4586 85.5109 81.8694 79.2344 81.8694 61.0834C81.8694 45.0679 87.6874 36.6221 98.3858 36.6221C109.084 36.6221 114.902 42.1698 114.902 61.0834C114.902 78.7768 108.855 85.5109 98.157 85.5109V85.5109Z" stroke="#3F3D56" stroke-miterlimit="10"/>
<path d="M85.6751 5.59922C86.9557 5.59922 87.9938 4.56112 87.9938 3.28057C87.9938 2.00001 86.9557 0.961914 85.6751 0.961914C84.3945 0.961914 83.3564 2.00001 83.3564 3.28057C83.3564 4.56112 84.3945 5.59922 85.6751 5.59922Z" fill="#2F2E41"/>
<path d="M91.3314 16.8526C94.9232 16.8526 97.835 13.0801 97.835 8.42632C97.835 3.77259 94.9232 0 91.3314 0C87.7396 0 84.8279 3.77259 84.8279 8.42632C84.8279 13.0801 87.7396 16.8526 91.3314 16.8526Z" fill="#2F2E41"/>
<path opacity="0.1" d="M91.3314 14.3079C88.0735 14.3079 85.3751 11.204 84.9017 7.15405C84.8524 7.57641 84.8278 8.00127 84.8279 8.42648C84.8279 13.0802 87.7396 16.8528 91.3314 16.8528C94.9232 16.8528 97.835 13.0802 97.835 8.42648C97.8351 8.00127 97.8104 7.57641 97.7612 7.15405C97.2877 11.204 94.5894 14.3079 91.3314 14.3079Z" fill="black"/>
<path d="M104.564 33.1041C104.425 33.6781 103.822 34.1377 103.155 34.4589C101.753 35.134 100.024 35.3355 98.346 35.4032C97.9181 35.4292 97.4887 35.4212 97.062 35.3794C96.2351 35.2995 95.4594 34.9429 94.8603 34.3673C94.8175 34.3395 94.7825 34.3012 94.7585 34.2561C94.7346 34.2111 94.7224 34.1607 94.7232 34.1096C94.724 34.0586 94.7377 34.0086 94.763 33.9642C94.7884 33.9199 94.8245 33.8828 94.8681 33.8562C95.7613 32.8751 97.2517 32.2736 98.7531 31.8404C99.8915 31.512 101.877 30.6613 103.119 30.7761C104.321 30.8873 104.741 32.3794 104.564 33.1041Z" fill="#3F3D56"/>
<path opacity="0.1" d="M104.564 33.1041C104.425 33.6781 103.822 34.1377 103.155 34.4589C101.753 35.134 100.024 35.3355 98.346 35.4032C97.9181 35.4292 97.4887 35.4212 97.062 35.3794C96.2351 35.2995 95.4594 34.9429 94.8603 34.3673C94.8175 34.3395 94.7825 34.3012 94.7585 34.2561C94.7346 34.2111 94.7224 34.1607 94.7232 34.1096C94.724 34.0586 94.7377 34.0086 94.763 33.9642C94.7884 33.9199 94.8245 33.8828 94.8681 33.8562C95.7613 32.8751 97.2517 32.2736 98.7531 31.8404C99.8915 31.512 101.877 30.6613 103.119 30.7761C104.321 30.8873 104.741 32.3794 104.564 33.1041Z" fill="black"/>
<path d="M86.7363 28.8133C86.3083 29.6521 86.2308 30.6266 86.5209 31.5226C86.8159 32.4117 87.3682 33.1934 88.1077 33.7685C89.922 35.2228 92.4189 35.4229 94.744 35.4027C96.7817 35.385 98.8165 35.2455 100.838 34.9851C101.515 34.9251 102.18 34.7705 102.815 34.526C103.574 34.1977 104.241 33.5955 104.511 32.814C104.781 32.0325 104.589 31.0756 103.947 30.5541C103.384 30.0958 102.606 30.0328 101.881 29.9892L97.7316 29.7399C98.1416 29.325 98.6874 29.0904 99.1866 28.7887C99.849 28.3886 100.289 27.7168 100.771 27.1111C101.513 26.2243 102.32 25.3942 103.186 24.6278C103.321 25.4025 103.811 26.0386 104.388 26.5732C104.964 27.1077 105.629 27.538 106.229 28.0469C107.681 29.2795 108.726 30.9525 110.253 32.0908C111.304 31.8148 112.286 31.3245 113.138 30.6508L112.544 29.5758C112.495 29.4652 112.418 29.3691 112.32 29.2967C112.152 29.1934 111.936 29.2466 111.741 29.2174C111.219 29.1392 110.992 28.5373 110.787 28.0515C110.226 26.7176 109.15 25.6827 108.232 24.5641C107.554 23.7384 106.953 22.8527 106.435 21.9181C106.127 21.3606 105.844 20.7802 105.426 20.3C105.007 19.8197 104.42 19.4421 103.783 19.4408C103.22 19.4396 102.701 19.7254 102.217 20.0129C100.743 20.8885 99.3247 21.8548 97.9703 22.9062C97.2615 23.4565 96.5571 24.0379 95.7257 24.3753C95.3757 24.5173 95.0067 24.6144 94.6708 24.7873C94.0826 25.09 93.6361 25.6022 93.1555 26.0569C91.4414 27.6785 89.0945 28.7292 86.7363 28.8133Z" fill="#3F3D56"/>
<path d="M95.4116 17.2712C95.3924 17.7669 95.2869 18.2554 95.1 18.7149C95.0053 18.9441 94.8644 19.1513 94.686 19.3237C94.5077 19.496 94.2957 19.6297 94.0634 19.7165C93.7335 19.8049 93.3877 19.8161 93.0528 19.7493C92.7608 19.7188 92.4793 19.6229 92.2294 19.4688C91.8403 19.2013 91.6464 18.724 91.5757 18.2569C91.505 17.7903 91.5366 17.3136 91.4914 16.8436C91.4473 16.464 91.3751 16.0883 91.2754 15.7194C91.2448 15.5966 91.2137 15.4745 91.1832 15.3523C91.1532 15.2302 91.1238 15.108 91.0967 14.9859C91.0718 14.8711 91.0486 14.7557 91.0288 14.6398C91.0124 14.5419 90.9977 14.4435 90.9869 14.3446C90.977 14.0512 90.9282 13.7604 90.8416 13.4799C90.7604 13.298 90.6587 13.1259 90.5385 12.967C90.487 12.8934 90.4373 12.8199 90.3914 12.7436C90.259 12.5452 90.1974 12.3078 90.2167 12.07C90.2222 12.0333 90.2311 11.9971 90.2433 11.962C90.2478 11.9484 90.2529 11.9349 90.2586 11.9219C90.3094 11.9081 90.3562 11.882 90.3947 11.8461C90.4332 11.8101 90.4624 11.7652 90.4797 11.7154C90.4991 11.6085 90.49 11.4982 90.4531 11.3959C90.4109 11.253 90.353 11.1151 90.2806 10.9848C90.2331 10.8988 90.0719 10.7439 90.0708 10.6455C90.0685 10.4475 90.4554 10.288 90.612 10.21C91.0902 9.97057 91.6234 9.86245 92.157 9.89671C92.4992 9.91989 92.8702 10.0251 93.0591 10.3118C93.2287 10.5702 93.2061 10.905 93.2785 11.2053C93.2861 11.249 93.3046 11.29 93.3322 11.3247C93.3691 11.3583 93.4155 11.3796 93.4651 11.3857C93.5489 11.4024 93.6347 11.4058 93.7196 11.3959H93.7201C93.7426 11.3941 93.7649 11.3909 93.7869 11.3863C93.919 11.3619 94.0439 11.308 94.1522 11.2285C94.2223 11.2099 94.293 11.1946 94.3643 11.1827C94.3672 11.1824 94.37 11.1818 94.3728 11.181C94.6561 12.0751 94.6929 13.0337 94.9247 13.9442C95.0395 14.3972 95.2041 14.8445 95.2273 15.3105C95.229 15.3308 95.2295 15.3518 95.2301 15.3727C95.2335 15.5225 95.2216 15.6735 95.2278 15.8228C95.23 15.8901 95.2376 15.957 95.2505 16.023C95.2758 16.1292 95.3074 16.2338 95.3449 16.3363L95.3466 16.3414C95.3573 16.3742 95.3675 16.4076 95.376 16.441C95.3822 16.4653 95.3879 16.489 95.3924 16.5133L95.393 16.515C95.4348 16.7649 95.4411 17.0195 95.4116 17.2712V17.2712Z" fill="#FBBEBE"/>
<path d="M91.4433 11.424C93.286 11.424 94.7799 9.93014 94.7799 8.08739C94.7799 6.24464 93.286 4.75079 91.4433 4.75079C89.6005 4.75079 88.1067 6.24464 88.1067 8.08739C88.1067 9.93014 89.6005 11.424 91.4433 11.424Z" fill="#FBBEBE"/>
<path d="M112.626 26.2667C112.53 25.3564 112.206 24.4849 111.685 23.732C111.772 24.2467 111.858 24.7611 111.945 25.2754C111.837 25.3066 111.723 25.3057 111.615 25.2726C111.508 25.2396 111.412 25.1759 111.34 25.0893C111.2 24.9139 111.092 24.7144 111.023 24.5006C110.644 23.5596 110.148 22.6698 109.548 21.8522C107.423 21.6752 105.324 20.7947 103.456 19.7683C101.587 18.7424 99.8386 17.5124 97.995 16.443C97.6754 16.2498 97.3424 16.0797 96.9985 15.934C96.4217 15.7027 95.7742 15.5828 95.2273 15.3108C95.1905 15.2927 95.1538 15.2735 95.1176 15.2537C94.994 15.1865 94.877 15.1079 94.7681 15.019C94.7092 14.9712 94.6533 14.9198 94.6007 14.8652C94.3278 14.5477 94.1115 14.1858 93.9611 13.7952C93.6676 13.146 93.563 12.3627 93.27 11.7135C93.4047 11.5877 93.5559 11.4809 93.7196 11.3963H93.7202C93.7439 11.3838 93.7677 11.3719 93.792 11.3606C93.9079 11.306 94.0285 11.2619 94.1522 11.2289C94.2224 11.2102 94.293 11.1949 94.3643 11.183C94.3672 11.1828 94.37 11.1822 94.3728 11.1813C94.7032 11.1275 95.0418 11.1543 95.3596 11.2594C95.8245 11.4166 96.2164 11.7305 96.6072 12.0274C97.242 12.4746 97.851 12.9576 98.431 13.474C98.7533 13.7828 99.0474 14.1221 99.3941 14.4026C99.6822 14.6249 99.9859 14.8262 100.303 15.0049C102.179 16.1223 104.055 17.2396 105.931 18.3567C106.566 18.7351 107.202 19.1134 107.823 19.5138C108.766 20.1223 109.675 20.7817 110.584 21.4405C111.12 21.8285 111.655 22.2166 112.19 22.6049C112.366 22.717 112.52 22.8595 112.645 23.0257C112.756 23.2145 112.825 23.4249 112.847 23.6427C112.982 24.5226 112.906 25.4217 112.626 26.2667V26.2667Z" fill="#FBBEBE"/>
<path d="M96.2414 19.7802C96.0163 20.7897 94.9961 21.3999 94.4628 22.2866C93.8 23.3871 94.0703 24.6664 94.3191 25.9269C93.8645 26.3188 93.4096 26.7107 92.9545 27.1026C92.7034 27.3181 92.4524 27.5347 92.182 27.7253C91.7879 27.9894 91.3759 28.226 90.9492 28.4333C90.5465 28.6403 90.1439 28.8475 89.7412 29.0548C89.3669 29.2653 88.9703 29.4334 88.5587 29.5559C87.7653 29.7595 86.9226 29.617 86.1377 29.3811C86.0451 29.3569 85.9561 29.3205 85.873 29.2731C85.8241 29.2439 85.7814 29.2053 85.7475 29.1595C85.6701 29.0207 85.642 28.8598 85.6678 28.7031C85.7475 27.382 86.0704 26.0887 86.3922 24.8049C86.5642 24.0348 86.7954 23.279 87.0838 22.5445C87.3667 21.9151 87.6919 21.3056 88.0571 20.7201C88.4602 19.9835 88.9377 19.2901 89.4822 18.6509C89.7473 18.4048 89.9704 18.1172 90.1427 17.7992C90.3435 17.3411 90.266 16.8157 90.3068 16.3169C90.3379 15.9422 90.4374 15.5763 90.6003 15.2374V15.2368C90.6874 15.0542 90.7923 14.8807 90.9136 14.7188C90.9684 14.8466 91.0233 14.9742 91.0781 15.1016C91.1143 15.1853 91.1501 15.2688 91.1856 15.3522C91.2319 15.4596 91.2779 15.5667 91.3236 15.6734C91.4553 15.9799 91.5869 16.2862 91.7183 16.5924C91.8603 16.978 92.0626 17.3385 92.3178 17.6607C92.4344 17.8256 92.5918 17.9575 92.7746 18.0434C92.9574 18.1293 93.1594 18.1664 93.3608 18.1509C93.5622 18.1355 93.7562 18.0681 93.9237 17.9553C94.0913 17.8425 94.2268 17.6882 94.3169 17.5074C94.507 17.1699 94.6447 16.8055 94.7252 16.4267C94.8369 15.9654 94.8523 15.486 94.7704 15.0185C94.6342 14.1182 94.2513 13.1987 93.973 12.3622C93.8598 12.0834 93.7942 11.7874 93.7791 11.4868C93.7796 11.453 93.783 11.4194 93.7892 11.3861C93.7909 11.3777 93.7927 11.3686 93.7943 11.3601C93.9103 11.3055 94.0308 11.2614 94.1546 11.2284C94.2247 11.2097 94.2954 11.1944 94.3666 11.1826C94.6115 12.5081 94.8568 13.8337 95.1024 15.1593C95.1081 15.1904 95.1143 15.2215 95.1199 15.2532C95.155 15.4432 95.1906 15.6332 95.2302 15.8227C95.2658 15.9946 95.3043 16.166 95.3473 16.3362L95.349 16.3413C95.3637 16.399 95.3789 16.4561 95.3948 16.5132L95.3953 16.5149C95.4389 16.671 95.4875 16.8259 95.5424 16.9786C95.8749 17.8987 96.4546 18.8251 96.2414 19.7802Z" fill="#6C63FF"/>
<path d="M109.781 33.9665C109.77 34.1609 109.808 34.355 109.89 34.5314C110.099 34.913 110.6 34.9998 111.034 35.0355C113.566 35.2437 116.114 35.166 118.63 34.804C118.766 34.7947 118.899 34.7536 119.016 34.684C119.374 34.4333 119.154 33.8223 118.763 33.6266C118.373 33.431 117.909 33.4782 117.481 33.3934C117.055 33.2863 116.65 33.1105 116.281 32.8729C115.412 32.3737 114.555 31.8532 113.712 31.3115C113.21 30.9889 112.617 30.6447 112.051 30.836C110.519 31.3543 109.77 32.3136 109.781 33.9665Z" fill="#3F3D56"/>
<path d="M91.1102 14.9149V14.9155C91.1063 14.9393 91.1023 14.9624 91.0972 14.9856C91.091 15.0241 91.0836 15.0631 91.0763 15.1016C91.0062 15.4607 90.9202 15.8181 90.8212 16.1732C90.5498 17.1544 90.1862 18.1198 89.8253 19.071C88.8572 21.6215 87.8888 24.1722 86.9202 26.7231C86.6759 27.3655 86.4322 28.0085 86.1545 28.638C86.0618 28.8478 85.9662 29.0593 85.8712 29.273C85.5307 30.0382 85.2039 30.8282 85.0953 31.6426C84.9941 32.1785 84.9824 32.7276 85.0608 33.2673C85.1694 33.8012 85.4934 34.3226 86.0007 34.52C86.2484 34.6167 86.603 34.7462 86.5351 35.0035C86.4984 35.1449 86.3378 35.2139 86.1935 35.2376C86.0031 35.268 85.8083 35.2561 85.623 35.2027C85.4377 35.1493 85.2664 35.0558 85.1213 34.9289C84.8504 34.6885 84.6423 34.3147 84.2821 34.2746C84.0327 34.2474 83.8031 34.3967 83.5746 34.5013C82.6426 34.9272 81.5568 34.6291 80.5779 34.3266C80.6548 33.9301 81.0529 33.6689 81.4482 33.5897C81.8435 33.51 82.2524 33.5665 82.6556 33.5558C82.7847 33.5627 82.9129 33.5297 83.0226 33.4613C83.121 33.371 83.19 33.2532 83.2206 33.1231C83.4803 32.3535 83.6735 31.563 83.798 30.7604C83.928 29.9217 83.9823 29.07 84.1678 28.2415C84.312 27.5951 84.5349 26.9691 84.726 26.3346C85.0956 25.0281 85.3991 23.7039 85.6354 22.3669C85.7548 21.8114 85.8403 21.2492 85.8915 20.6833C85.9238 20.2139 85.9085 19.7423 85.9537 19.2746C86.0297 18.6661 86.1566 18.0651 86.3332 17.4779C86.5063 16.8372 86.6791 16.1968 86.8518 15.5568C87.108 14.6096 87.3828 13.6255 88.0321 12.8892C88.2575 12.63 88.5339 12.4199 88.8439 12.2718C89.1539 12.1238 89.491 12.0409 89.8344 12.0285C89.9631 12.0283 90.0915 12.0422 90.2172 12.0698C90.2382 12.0749 90.2591 12.08 90.28 12.0856C90.417 12.1214 90.5485 12.1759 90.6708 12.2474C90.871 12.1201 90.9728 12.1648 91.1057 12.361C91.2222 12.5687 91.2771 12.8053 91.264 13.0431C91.2752 13.6706 91.2237 14.2977 91.1102 14.9149Z" fill="#FBBEBE"/>
<path d="M91.3303 15.6649L91.3218 15.6734L91.276 15.7192L90.8213 16.1733L90.5985 15.2374L89.8345 12.0286C89.9632 12.0284 90.0916 12.0423 90.2173 12.0699C90.2228 12.0331 90.2317 11.9969 90.2439 11.9619L90.2801 12.0857L90.5391 12.9668L91.0294 14.6396L91.1103 14.915V14.9156L91.3303 15.6649Z" fill="#6C63FF"/>
<path d="M94.2155 5.42816C94.2151 5.72528 94.1562 6.01941 94.0421 6.29374C93.9279 6.56807 93.7609 6.81722 93.5504 7.02695C93.4742 7.10329 93.3925 7.17395 93.306 7.23837C92.9157 7.53256 92.4404 7.6918 91.9516 7.69202H89.2385C88.639 7.6911 88.0644 7.45229 87.6408 7.02804C87.2172 6.60379 86.9792 6.02878 86.9792 5.42926C86.9792 4.82975 87.2172 4.25473 87.6408 3.83048C88.0644 3.40623 88.639 3.16743 89.2385 3.1665H91.9516C92.5512 3.16806 93.1258 3.40678 93.5499 3.83052C93.9741 4.25426 94.2133 4.82861 94.2155 5.42816V5.42816Z" fill="#2F2E41"/>
<path d="M96.7576 5.59922C98.0382 5.59922 99.0763 4.56112 99.0763 3.28057C99.0763 2.00001 98.0382 0.961914 96.7576 0.961914C95.4771 0.961914 94.439 2.00001 94.439 3.28057C94.439 4.56112 95.4771 5.59922 96.7576 5.59922Z" fill="#2F2E41"/>
<path opacity="0.1" d="M96.7049 0.961914C96.6765 0.961914 96.6483 0.963043 96.6201 0.964059C97.2199 0.985865 97.7879 1.23947 98.2045 1.67152C98.6211 2.10356 98.8539 2.68037 98.8539 3.28057C98.8539 3.88077 98.6211 4.45757 98.2045 4.88962C97.7879 5.32166 97.2199 5.57527 96.6201 5.59708C96.6483 5.59809 96.6765 5.59922 96.7049 5.59922C97.3199 5.59922 97.9096 5.35493 98.3445 4.9201C98.7793 4.48527 99.0236 3.89551 99.0236 3.28057C99.0236 2.66562 98.7793 2.07586 98.3445 1.64103C97.9096 1.2062 97.3199 0.961914 96.7049 0.961914V0.961914Z" fill="black"/>
<path opacity="0.1" d="M85.6735 0.961914C85.702 0.961914 85.7302 0.963043 85.7584 0.964059C85.1586 0.985865 84.5906 1.23947 84.174 1.67152C83.7574 2.10356 83.5246 2.68037 83.5246 3.28057C83.5246 3.88077 83.7574 4.45757 84.174 4.88962C84.5906 5.32166 85.1586 5.57527 85.7584 5.59708C85.7302 5.59809 85.702 5.59922 85.6735 5.59922C85.059 5.59868 84.4697 5.35415 84.0353 4.91938C83.6009 4.48461 83.3569 3.89516 83.3569 3.28057C83.3569 2.66598 83.6009 2.07653 84.0353 1.64175C84.4697 1.20698 85.059 0.962455 85.6735 0.961914Z" fill="black"/>
<path opacity="0.1" d="M93.3058 7.23865C92.9156 7.53284 92.4402 7.69207 91.9515 7.6923H89.2384C88.7497 7.69207 88.2743 7.53284 87.884 7.23865H93.3058Z" fill="black"/>
<path d="M110.827 24.039C110.827 24.039 111.411 25.7233 111.946 25.2748L111.52 23.0732L110.827 24.039Z" fill="#FBBEBE"/>
<path d="M181.958 75.4028C182.503 75.6008 183.086 75.6695 183.661 75.6037C184.237 75.5379 184.789 75.3393 185.275 75.0236C185.761 74.7079 186.166 74.2837 186.46 73.7844C186.754 73.2851 186.928 72.7244 186.968 72.1465C187.008 71.5686 186.913 70.9893 186.691 70.4542C186.469 69.9191 186.126 69.4429 185.689 69.0631C185.251 68.6833 184.732 68.4102 184.171 68.2655C183.61 68.1208 183.023 68.1083 182.457 68.2291L182.55 70.1543L181.639 68.5044C180.745 68.9245 180.055 69.6822 179.719 70.6112C179.6 70.9367 179.528 71.2773 179.504 71.6231C179.446 72.4343 179.655 73.2421 180.098 73.9242C180.541 74.6062 181.194 75.1254 181.958 75.4028V75.4028Z" fill="#6C63FF"/>
<path d="M186.464 97.733C186.143 96.0956 187.536 94.6441 188.912 93.7006C190.289 92.7571 191.897 91.83 192.366 90.2289C193.041 87.9277 191.031 85.8203 189.466 84.0029C188.306 82.6542 187.309 81.1727 186.497 79.5894C186.171 78.9545 185.872 78.2908 185.786 77.5825C185.663 76.5625 185.991 75.5475 186.321 74.5745C187.421 71.3333 188.597 68.1192 189.849 64.9323" stroke="#3F3D56" stroke-miterlimit="10"/>
<path d="M182.111 74.9073C182.655 75.1052 183.238 75.174 183.814 75.1082C184.389 75.0424 184.942 74.8438 185.427 74.5281C185.913 74.2123 186.319 73.7881 186.613 73.2888C186.906 72.7896 187.08 72.2289 187.12 71.651C187.16 71.0731 187.066 70.4938 186.844 69.9587C186.622 69.4236 186.279 68.9474 185.841 68.5675C185.404 68.1877 184.884 67.9147 184.323 67.77C183.762 67.6253 183.175 67.6128 182.609 67.7336L182.702 69.6588L181.792 68.0089C180.898 68.4289 180.207 69.1867 179.871 70.1157C179.752 70.4411 179.68 70.7818 179.656 71.1275C179.599 71.9387 179.807 72.7466 180.25 73.4286C180.693 74.1107 181.346 74.6298 182.111 74.9073V74.9073Z" stroke="#3F3D56" stroke-miterlimit="10"/>
<path d="M186.005 64.2676C186.219 63.6781 186.578 63.1518 187.048 62.7373C187.519 62.3228 188.086 62.0333 188.698 61.8956L189.006 63.7259L189.577 61.8036C190.369 61.8154 191.138 62.0788 191.771 62.5558C192.405 63.0328 192.87 63.6988 193.1 64.4575C193.33 65.2162 193.313 66.0285 193.052 66.777C192.79 67.5255 192.298 68.1715 191.645 68.6218C190.992 69.072 190.214 69.3032 189.421 69.282C188.628 69.2608 187.863 68.9882 187.235 68.5037C186.608 68.0192 186.151 67.3477 185.929 66.5863C185.708 65.8249 185.735 65.0129 186.005 64.2676H186.005Z" fill="#6C63FF"/>
<path d="M186.212 63.6063C186.426 63.0167 186.785 62.4905 187.255 62.076C187.726 61.6614 188.293 61.372 188.905 61.2343L189.213 63.0646L189.784 61.1423C190.576 61.1541 191.345 61.4175 191.978 61.8945C192.612 62.3715 193.077 63.0375 193.307 63.7962C193.537 64.5549 193.52 65.3671 193.259 66.1156C192.997 66.8641 192.505 67.5102 191.852 67.9604C191.199 68.4107 190.421 68.6419 189.628 68.6207C188.835 68.5995 188.07 68.3269 187.442 67.8424C186.815 67.3579 186.358 66.6864 186.136 65.925C185.915 65.1636 185.942 64.3516 186.212 63.6063H186.212Z" stroke="#3F3D56" stroke-miterlimit="10"/>
<path d="M188.811 84.0396C189.675 84.3527 190.623 84.3373 191.476 83.9961C192.329 83.6549 193.026 83.0119 193.435 82.1896C193.844 81.3673 193.936 80.4231 193.694 79.5372C193.452 78.6513 192.892 77.8854 192.121 77.3857L191.683 78.8629L191.372 77.011C191.369 77.0096 191.365 77.0084 191.362 77.0074C190.9 76.8396 190.41 76.7644 189.919 76.7861C189.428 76.8079 188.946 76.9261 188.501 77.1341C188.056 77.3421 187.656 77.6358 187.325 77.9984C186.993 78.361 186.736 78.7853 186.568 79.2472C186.401 79.7092 186.326 80.1996 186.348 80.6904C186.37 81.1813 186.489 81.663 186.697 82.1081C186.905 82.5531 187.199 82.9528 187.562 83.2842C187.925 83.6156 188.349 83.8723 188.811 84.0396H188.811Z" fill="#6C63FF"/>
<path d="M188.986 83.37C189.85 83.6832 190.798 83.6677 191.651 83.3266C192.504 82.9854 193.201 82.3424 193.61 81.52C194.019 80.6977 194.112 79.7536 193.869 78.8677C193.627 77.9817 193.067 77.2159 192.297 76.7161L191.858 78.1933L191.547 76.3415C191.544 76.34 191.541 76.3388 191.537 76.3379C191.076 76.17 190.585 76.0948 190.094 76.1166C189.603 76.1383 189.122 76.2566 188.676 76.4646C188.231 76.6726 187.831 76.9663 187.5 77.3288C187.168 77.6914 186.911 78.1158 186.744 78.5777C186.576 79.0396 186.501 79.53 186.523 80.0209C186.545 80.5118 186.664 80.9935 186.872 81.4385C187.08 81.8836 187.374 82.2832 187.737 82.6146C188.1 82.946 188.524 83.2027 188.986 83.37H188.986Z" stroke="#3F3D56" stroke-miterlimit="10"/>
<path d="M184.916 90.2513C185.064 91.0961 185.499 91.8641 186.146 92.4265C186.794 92.989 187.615 93.3117 188.472 93.3406C189.329 93.3695 190.17 93.1027 190.854 92.5851C191.538 92.0674 192.023 91.3304 192.228 90.4976C192.433 89.6647 192.345 88.7868 191.98 88.0109C191.614 87.235 190.993 86.6084 190.22 86.2362C189.448 85.8639 188.571 85.7687 187.736 85.9665C186.901 86.1642 186.16 86.6429 185.637 87.3223L187.303 89.8306L185.026 88.4993C184.85 89.066 184.812 89.6669 184.916 90.2513V90.2513Z" fill="#6C63FF"/>
<path d="M185.071 89.7553C185.22 90.6 185.654 91.368 186.302 91.9305C186.949 92.493 187.77 92.8157 188.628 92.8446C189.485 92.8734 190.326 92.6067 191.01 92.0891C191.694 91.5714 192.179 90.8344 192.384 90.0015C192.589 89.1687 192.501 88.2907 192.135 87.5148C191.77 86.739 191.149 86.1123 190.376 85.7401C189.603 85.3679 188.726 85.2727 187.891 85.4704C187.057 85.6682 186.316 86.1469 185.792 86.8263L187.459 89.3346L185.182 88.0032C185.005 88.57 184.967 89.1709 185.071 89.7553V89.7553Z" stroke="#3F3D56" stroke-miterlimit="10"/>
<path d="M2.61873 84.5153C2.97643 84.6453 3.35945 84.6905 3.73759 84.6472C4.11574 84.604 4.47867 84.4735 4.79779 84.2661C5.1169 84.0587 5.38348 83.78 5.5765 83.4519C5.76952 83.1239 5.88372 82.7555 5.91008 82.3758C5.93645 81.9961 5.87426 81.6155 5.72843 81.2639C5.5826 80.9124 5.3571 80.5995 5.06972 80.3499C4.78233 80.1004 4.44091 79.921 4.07237 79.8259C3.70383 79.7308 3.31825 79.7226 2.946 79.802L3.00752 81.0669L2.40906 79.9829C1.82171 80.2588 1.36795 80.7567 1.14751 81.3671C1.06922 81.5809 1.02163 81.8047 1.00615 82.0319C0.968375 82.5649 1.10536 83.0956 1.39635 83.5438C1.68734 83.9919 2.11648 84.3329 2.61873 84.5153V84.5153Z" fill="#6C63FF"/>
<path d="M5.57992 99.1863C5.36866 98.1106 6.28408 97.1569 7.1883 96.537C8.09251 95.9171 9.14905 95.308 9.45757 94.256C9.90097 92.7441 8.58021 91.3595 7.55224 90.1655C6.78957 89.2793 6.13463 88.306 5.6011 87.2657C5.36915 86.8571 5.21116 86.4107 5.13441 85.9471C5.05336 85.277 5.26867 84.6101 5.48558 83.9708C6.20818 81.8413 6.98077 79.7296 7.80334 77.6357" stroke="#3F3D56" stroke-miterlimit="10"/>
<path d="M2.71907 84.1896C3.07677 84.3197 3.45979 84.3649 3.83794 84.3216C4.21608 84.2784 4.57901 84.1479 4.89813 83.9405C5.21724 83.733 5.48382 83.4543 5.67684 83.1263C5.86986 82.7983 5.98406 82.4299 6.01042 82.0502C6.03679 81.6705 5.9746 81.2899 5.82877 80.9383C5.68294 80.5867 5.45744 80.2739 5.17006 80.0243C4.88267 79.7748 4.54126 79.5954 4.17272 79.5003C3.80418 79.4052 3.41859 79.397 3.04635 79.4764L3.10786 80.7413L2.5094 79.6572C1.92205 79.9332 1.46829 80.4311 1.24785 81.0415C1.16957 81.2553 1.12197 81.4791 1.10649 81.7063C1.06872 82.2392 1.2057 82.77 1.49669 83.2181C1.78768 83.6663 2.21682 84.0073 2.71907 84.1896V84.1896Z" stroke="#3F3D56" stroke-miterlimit="10"/>
<path d="M5.27749 77.1986C5.41787 76.8112 5.65347 76.4655 5.9626 76.1931C6.27172 75.9208 6.64442 75.7306 7.04635 75.6402L7.2487 76.8427L7.62385 75.5797C8.14472 75.5874 8.64967 75.7605 9.06577 76.0739C9.48188 76.3873 9.78762 76.8248 9.93886 77.3233C10.0901 77.8218 10.079 78.3555 9.90716 78.8473C9.73533 79.339 9.41166 79.7635 8.98288 80.0593C8.5541 80.3552 8.0424 80.5071 7.52166 80.4931C7.00091 80.4792 6.49807 80.3001 6.08573 79.9818C5.67339 79.6634 5.37289 79.2223 5.22762 78.722C5.08234 78.2217 5.09981 77.6882 5.27749 77.1986V77.1986Z" fill="#6C63FF"/>
<path d="M5.41543 76.7641C5.55581 76.3768 5.79142 76.031 6.10054 75.7587C6.40966 75.4863 6.78236 75.2962 7.18429 75.2057L7.38664 76.4082L7.76179 75.1453C8.28266 75.153 8.7876 75.326 9.20371 75.6394C9.61982 75.9529 9.92556 76.3904 10.0768 76.8889C10.228 77.3874 10.2169 77.921 10.0451 78.4128C9.87327 78.9046 9.5496 79.329 9.12082 79.6249C8.69204 79.9207 8.18034 80.0726 7.65959 80.0587C7.13885 80.0447 6.63601 79.8657 6.22367 79.5473C5.81133 79.229 5.51083 78.7878 5.36555 78.2875C5.22028 77.7873 5.23775 77.2538 5.41543 76.7641V76.7641Z" stroke="#3F3D56" stroke-miterlimit="10"/>
<path d="M7.12046 90.1891C7.68775 90.3949 8.31091 90.3848 8.87119 90.1606C9.43146 89.9364 9.88966 89.514 10.1585 88.9737C10.4272 88.4334 10.4878 87.8131 10.3287 87.231C10.1695 86.6489 9.80173 86.1458 9.29542 85.8174L9.00716 86.788L8.80275 85.5713C8.80073 85.5703 8.79864 85.5695 8.7965 85.5689C8.49306 85.4586 8.17086 85.4091 7.8483 85.4234C7.52574 85.4376 7.20915 85.5153 6.91662 85.6519C6.62409 85.7886 6.36136 85.9815 6.14343 86.2198C5.92551 86.458 5.75667 86.7368 5.64657 87.0404C5.53647 87.3439 5.48725 87.6661 5.50174 87.9887C5.51624 88.3112 5.59415 88.6277 5.73102 88.9202C5.8679 89.2126 6.06107 89.4752 6.29947 89.6929C6.53788 89.9107 6.81686 90.0793 7.12046 90.1891V90.1891Z" fill="#6C63FF"/>
<path d="M7.23854 89.7495C7.80583 89.9553 8.42899 89.9451 8.98926 89.7209C9.54954 89.4968 10.0077 89.0743 10.2765 88.534C10.5453 87.9937 10.6059 87.3734 10.4468 86.7913C10.2876 86.2093 9.9198 85.7061 9.4135 85.3778L9.12524 86.3483L8.92083 85.1316C8.91881 85.1307 8.91672 85.1299 8.91458 85.1292C8.61121 85.0192 8.28913 84.97 7.96674 84.9844C7.64435 84.9988 7.32796 85.0766 7.03563 85.2133C6.44524 85.4894 5.9887 85.9887 5.76644 86.6013C5.54419 87.214 5.57442 87.8899 5.85049 88.4803C6.12657 89.0707 6.62586 89.5272 7.23854 89.7495V89.7495Z" stroke="#3F3D56" stroke-miterlimit="10"/>
<path d="M4.56217 94.2702C4.65971 94.8252 4.94512 95.3298 5.37053 95.6994C5.79595 96.0689 6.33549 96.281 6.89869 96.2999C7.46188 96.3189 8.01447 96.1436 8.46378 95.8035C8.91309 95.4634 9.2318 94.9792 9.36646 94.432C9.50111 93.8848 9.44352 93.308 9.20335 92.7982C8.96318 92.2884 8.55503 91.8767 8.04735 91.6322C7.53967 91.3876 6.96334 91.325 6.41501 91.455C5.86668 91.5849 5.3797 91.8994 5.03574 92.3458L6.13068 93.9938L4.63458 93.1191C4.51858 93.4915 4.49375 93.8863 4.56217 94.2702V94.2702Z" fill="#6C63FF"/>
<path d="M4.66471 93.9446C4.76225 94.4996 5.04765 95.0042 5.47307 95.3737C5.89848 95.7433 6.43803 95.9553 7.00123 95.9743C7.56442 95.9933 8.11701 95.818 8.56632 95.4779C9.01563 95.1378 9.33434 94.6536 9.469 94.1064C9.60365 93.5592 9.54606 92.9823 9.30589 92.4726C9.06572 91.9628 8.65757 91.5511 8.14989 91.3065C7.64221 91.062 7.06588 90.9994 6.51755 91.1294C5.96922 91.2593 5.48224 91.5738 5.13828 92.0202L6.23322 93.6682L4.73712 92.7935C4.62112 93.1658 4.59629 93.5606 4.66471 93.9446V93.9446Z" stroke="#3F3D56" stroke-miterlimit="10"/>
<path d="M87.4352 61.307C89.1226 61.307 90.4905 59.5368 90.4905 57.3531C90.4905 55.1694 89.1226 53.3992 87.4352 53.3992C85.7478 53.3992 84.3799 55.1694 84.3799 57.3531C84.3799 59.5368 85.7478 61.307 87.4352 61.307Z" fill="#2F2E41"/>
<path d="M104.062 61.3969C105.749 61.3969 107.117 59.6266 107.117 57.4429C107.117 55.2592 105.749 53.489 104.062 53.489C102.374 53.489 101.006 55.2592 101.006 57.4429C101.006 59.6266 102.374 61.3969 104.062 61.3969Z" fill="#2F2E41"/>
<path d="M101.724 69.1249C101.724 70.9113 99.2291 72.3599 96.1523 72.3599C93.0754 72.3599 90.5808 70.9113 90.5808 69.1249C90.5808 67.5774 92.4517 66.2834 94.9517 65.9671C95.3497 65.9146 95.7508 65.8888 96.1523 65.8898C96.825 65.8876 97.4958 65.96 98.1526 66.1055C100.241 66.571 101.724 67.7482 101.724 69.1249Z" fill="#2F2E41"/>
<path d="M88.1557 60.4085C89.8431 60.4085 91.211 58.6382 91.211 56.4545C91.211 54.2708 89.8431 52.5006 88.1557 52.5006C86.4683 52.5006 85.1003 54.2708 85.1003 56.4545C85.1003 58.6382 86.4683 60.4085 88.1557 60.4085Z" stroke="#3F3D56" stroke-miterlimit="10"/>
<path d="M104.78 60.4983C106.467 60.4983 107.835 58.728 107.835 56.5443C107.835 54.3606 106.467 52.5904 104.78 52.5904C103.092 52.5904 101.724 54.3606 101.724 56.5443C101.724 58.728 103.092 60.4983 104.78 60.4983Z" stroke="#3F3D56" stroke-miterlimit="10"/>
<path d="M96.8727 71.4614C99.9497 71.4614 102.444 70.013 102.444 68.2264C102.444 66.4397 99.9497 64.9913 96.8727 64.9913C93.7957 64.9913 91.3013 66.4397 91.3013 68.2264C91.3013 70.013 93.7957 71.4614 96.8727 71.4614Z" stroke="#3F3D56" stroke-miterlimit="10"/>
<path d="M98.2227 66.3753C98.2242 66.6013 98.1393 66.8194 97.9855 66.985C97.9128 67.0643 97.8246 67.1277 97.7262 67.1713C97.6279 67.2148 97.5216 67.2375 97.414 67.238H95.6167C95.3953 67.2303 95.1859 67.1352 95.0343 66.9736C94.8828 66.8119 94.8014 66.5968 94.808 66.3753C94.807 66.2001 94.8584 66.0286 94.9554 65.8827C95.3531 65.8267 95.7543 65.7991 96.1559 65.8002C96.8294 65.798 97.5008 65.8752 98.1562 66.0303C98.2006 66.1399 98.2232 66.2571 98.2227 66.3753V66.3753Z" fill="white"/>
<path d="M88.1567 56.2744C88.653 56.2744 89.0553 55.8721 89.0553 55.3758C89.0553 54.8795 88.653 54.4772 88.1567 54.4772C87.6604 54.4772 87.2581 54.8795 87.2581 55.3758C87.2581 55.8721 87.6604 56.2744 88.1567 56.2744Z" fill="white"/>
<path d="M104.871 56.2744C105.367 56.2744 105.769 55.8721 105.769 55.3758C105.769 54.8795 105.367 54.4772 104.871 54.4772C104.374 54.4772 103.972 54.8795 103.972 55.3758C103.972 55.8721 104.374 56.2744 104.871 56.2744Z" fill="white"/>
<path opacity="0.3" d="M105.768 64.7209C106.265 64.7209 106.667 64.3186 106.667 63.8223C106.667 63.326 106.265 62.9237 105.768 62.9237C105.272 62.9237 104.87 63.326 104.87 63.8223C104.87 64.3186 105.272 64.7209 105.768 64.7209Z" fill="#6C63FF"/>
<path opacity="0.3" d="M83.8427 64.7209C84.339 64.7209 84.7413 64.3186 84.7413 63.8223C84.7413 63.326 84.339 62.9237 83.8427 62.9237C83.3464 62.9237 82.9441 63.326 82.9441 63.8223C82.9441 64.3186 83.3464 64.7209 83.8427 64.7209Z" fill="#6C63FF"/>
</svg>
